<?xml version="1.0" standalone="no"?><!DOCTYPE svg PUBLIC "-//W3C//DTD SVG 1.1//EN" "http://www.w3.org/Graphics/SVG/1.1/DTD/svg11.dtd"><svg class="icon" width="22px" height="22.00px" viewBox="0 0 1024 1024" version="1.1" xmlns="http://www.w3.org/2000/svg"><path d="M978.716204 711.81026l-52.237553-17.824378a66.629766 66.629766 0 0 1-43.977476-50.761722s-38.074152-206.936676-38.623298-210.620533c-13.30536-89.568069-50.887568-171.345124-107.86151-230.721581-38.383047-40.041926-85.563877-69.787358-140.032337-85.01473a88.618504 88.618504 0 1 0-167.981602 0c-54.468461 15.215932-101.649291 45.018566-140.032337 85.01473-56.973941 59.376457-94.556149 141.153511-107.861509 230.721581-0.549146 3.683857-38.623298 210.620533-38.623299 210.620533a66.629766 66.629766 0 0 1-43.977475 50.761722l-52.237554 17.824378A66.618325 66.618325 0 0 0 0.148723 774.870574v0.114405a66.629766 66.629766 0 0 0 66.629766 66.652647h113.261449v0.697874h663.87226v-0.697874h113.26145a66.629766 66.629766 0 0 0 66.664087-66.652647v-0.114405a66.618325 66.618325 0 0 0-45.121531-63.060314zM645.578816 890.420133a133.591307 133.591307 0 0 1-267.171174 0" fill="#707070" /></svg>