<?xml version="1.0" standalone="no"?><!DOCTYPE svg PUBLIC "-//W3C//DTD SVG 1.1//EN" "http://www.w3.org/Graphics/SVG/1.1/DTD/svg11.dtd"><svg class="icon" width="24px" height="24.00px" viewBox="0 0 1024 1024" version="1.1" xmlns="http://www.w3.org/2000/svg"><path d="M898.37 346.64a422.106 422.106 0 0 0-222.81-225.09 417.89 417.89 0 0 0-325.88 0 417.704 417.704 0 0 0-133.07 90.62C137.82 291.76 93.76 399.32 94.05 511.31c-0.33 169.32 100.2 322.58 255.64 389.72a413.825 413.825 0 0 0 162.98 33.18c111.26 0.17 217.91-44.47 295.89-123.84a417.214 417.214 0 0 0 89.77-134.39c43.93-105.38 43.94-223.95 0.04-329.34zM872.1 511.23c-0.13 200.26-161.41 363.16-359.43 363.16-198.15 0-359.35-162.94-359.35-363.16 0-200.26 161.25-363.12 359.35-363.12 198.19-0.04 359.43 162.85 359.43 363.12z m0 0"  /><path d="M347.4 467.08c32.67 0 59.19-26.82 59.19-59.74s-26.57-59.74-59.19-59.74-59.06 26.73-59.06 59.61c-0.15 15.78 6 30.97 17.09 42.21a59.26 59.26 0 0 0 41.97 17.66z m330.62 1.15c32.5 0 58.97-26.82 58.97-59.7 0-33.04-26.48-59.82-58.97-59.82-32.66 0-59.19 26.78-59.19 59.82 0.01 32.88 26.57 59.7 59.19 59.7z m48.47 133.62c-13.23-9.46-31.58-6.72-41.48 6.19-39.65 53.81-104.09 85.75-172.35 85.75-68.21 0-132.73-31.99-172.3-85.66-9.86-12.96-28.25-15.72-41.48-6.23-13.12 9.92-15.8 28.56-6.02 41.77a269.993 269.993 0 0 0 94.43 80.03c78.78 39.96 171.9 39.96 250.68 0a269.794 269.794 0 0 0 94.56-80.12c9.65-13.25 6.96-31.76-6.04-41.73z m0 0"  /></svg>