<?xml version="1.0" standalone="no"?><!DOCTYPE svg PUBLIC "-//W3C//DTD SVG 1.1//EN" "http://www.w3.org/Graphics/SVG/1.1/DTD/svg11.dtd"><svg class="icon" width="32px" height="32.00px" viewBox="0 0 1024 1024" version="1.1" xmlns="http://www.w3.org/2000/svg"><path d="M512 512m-512 0a512 512 0 1 0 1024 0 512 512 0 1 0-1024 0Z" fill="#0089FF" /><path d="M792.832 322.6624l-92.8256-92.8256a85.504 85.504 0 0 0-120.8832 0L486.2976 322.6624a85.504 85.504 0 0 0 0 120.832l1.024 1.1264 69.3248-69.2736a42.752 42.752 0 0 1 60.416 0l30.2592 30.208a42.752 42.752 0 0 1 0 60.416l-69.2736 69.3248 1.024 1.0752a85.504 85.504 0 0 0 120.9344 0l92.8256-92.8256a85.504 85.504 0 0 0 0-120.8832z m-257.536 255.3856l-69.2736 69.2736a42.752 42.752 0 0 1-60.4672 0l-30.208-30.208a42.752 42.752 0 0 1 0-60.416l69.2736-69.3248-1.024-1.0752a85.504 85.504 0 0 0-120.9344 0L229.888 579.1232a85.504 85.504 0 0 0 0 120.832l92.8256 92.8768a85.504 85.504 0 0 0 120.8832 0l92.8256-92.8256a85.504 85.504 0 0 0 0-120.8832l-1.0752-1.0752z" fill="#FFFFFF" /><path d="M425.8304 566.5792l140.8-140.7488c10.0352-10.0352 20.1216-10.0352 30.208 0 10.0352 10.0864 10.0352 20.1728 0 30.208l-140.8 140.8c-10.0352 10.0352-20.1216 10.0352-30.208 0-10.0352-10.0864-10.0352-20.1728 0-30.208z" fill="#FFFFFF" /></svg>