<?xml version="1.0" standalone="no"?><!DOCTYPE svg PUBLIC "-//W3C//DTD SVG 1.1//EN" "http://www.w3.org/Graphics/SVG/1.1/DTD/svg11.dtd"><svg class="icon" width="32px" height="32.00px" viewBox="0 0 1024 1024" version="1.1" xmlns="http://www.w3.org/2000/svg"><path d="M512 0c282.763636 0 512 229.236364 512 512s-229.236364 512-512 512S0 794.763636 0 512 229.236364 0 512 0z m0.232727 19.083636C239.709091 19.083636 18.850909 239.895273 18.850909 512.465455c0 272.477091 220.858182 493.381818 493.381818 493.381818 272.477091 0 493.381818-220.904727 493.381818-493.381818 0-272.523636-220.904727-493.381818-493.381818-493.381819z" fill="#EAEAEA" /><path d="M930.909091 235.752727v512.605091l-837.818182 45.940364V287.650909l837.818182-51.851636zM408.482909 348.997818l-57.809454 3.258182c1.024 7.447273 15.825455 118.970182-12.70691 201.960727L179.2 558.545455v49.152L306.315636 605.090909l-0.418909 0.465455c-6.050909 6.330182-81.92 85.410909-113.291636 101.096727h84.107636c5.725091-5.12 70.842182-63.488 91.787637-106.821818l123.298909-5.213091 2.513454-47.848727-106.589091 6.516363c1.861818-4.887273 26.344727-77.079273 20.759273-204.334545z m37.888 267.869091l-61.021091 2.606546 46.871273 78.568727 62.370909-2.56-48.221091-78.615273z m175.988364-6.609454l-60.369455 1.396363-45.009454 75.962182 62.277818 1.349818 43.101091-78.661818z m73.821091-100.165819h-49.989819v26.856728l-131.723636 6.516363v45.893818h130.978909v98.257455h53.341091v-107.473455l131.630546-4.561454 0.651636-44.404364-134.888727 5.12v-26.205091z m89.367272 92.997819H721.92l48.174545 76.706909h62.929455l-47.569455-76.706909z m-210.059636-269.777455c-31.511273 47.802182-50.734545 75.310545-50.734545 75.310545 27.648 29.463273 80.942545 56.971636 80.942545 56.971637-25.693091 11.776-92.485818 18.385455-92.485818 18.385454v47.010909l7.773091 0.186182c70.469818-0.465455 153.506909-47.941818 153.506909-47.941818 51.386182 30.114909 154.158545 32.116364 154.158545 32.116364v-49.152l-6.004363 1.024c-36.724364 4.840727-85.178182-12.846545-85.178182-12.846546 38.539636-15.685818 79.592727-57.669818 79.592727-57.669818V341.736727h-44.962909v11.776l-156.765091 2.001455-39.842909-22.202182zM197.818182 458.938182v56.32l121.437091 6.609454v-54.365091L197.818182 459.031273z m555.566545-65.442909c-49.524364 38.632727-82.571636 45.195636-82.571636 45.195636-32.488727-1.303273-79.36-40.634182-79.36-40.634182l161.931636-4.561454zM197.818182 372.596364v56.32l121.437091 6.562909V381.114182L197.818182 372.596364z" fill="#FD3839" /></svg>